<svg width="48" height="48" viewBox="0 0 48 48" fill="none" xmlns="http://www.w3.org/2000/svg">
<rect width="48" height="48" rx="8" fill="#E9FAF2"/>
<path d="M38.0897 23.2232L35 24.7681L31 17.1078L34.1212 15.5472C34.3557 15.43 34.6268 15.4095 34.8763 15.4902C35.1257 15.5709 35.3335 15.7464 35.4548 15.9788L38.5289 21.8659C38.5904 21.9836 38.6278 22.1124 38.639 22.2447C38.6501 22.3771 38.6348 22.5103 38.5939 22.6367C38.553 22.763 38.4874 22.8799 38.4008 22.9807C38.3142 23.0814 38.2085 23.1638 38.0897 23.2232V23.2232Z" stroke="#3DB079" stroke-width="1.5" stroke-linecap="round" stroke-linejoin="round"/>
<path d="M12.9999 24.634L9.91021 23.0892C9.79143 23.0298 9.68567 22.9473 9.5991 22.8466C9.51253 22.7459 9.44688 22.629 9.406 22.5026C9.36511 22.3763 9.3498 22.243 9.36096 22.1107C9.37212 21.9784 9.40953 21.8496 9.471 21.7319L12.5451 15.8448C12.6665 15.6124 12.8742 15.4369 13.1237 15.3562C13.3731 15.2755 13.6443 15.2959 13.8788 15.4132L16.9999 16.9738L12.9999 24.634Z" stroke="#3DB079" stroke-width="1.5" stroke-linecap="round" stroke-linejoin="round"/>
<path d="M35 24.768L33 27.1078L28.4004 31.7074C28.2783 31.8295 28.1266 31.9179 27.9602 31.964C27.7938 32.0101 27.6182 32.0123 27.4507 31.9704L20.2061 30.1593C20.0702 30.1253 19.943 30.0632 19.8326 29.9769L13 24.634" stroke="#3DB079" stroke-width="1.5" stroke-linecap="round" stroke-linejoin="round"/>
<path d="M32.9991 27.1077L27.4991 23.1077L25.8991 24.3077C25.2067 24.827 24.3646 25.1077 23.4991 25.1077C22.6336 25.1077 21.7915 24.827 21.0991 24.3077L20.4215 23.7995C20.3069 23.7135 20.2121 23.6039 20.1435 23.4781C20.0749 23.3523 20.0342 23.2133 20.024 23.0704C20.0138 22.9274 20.0345 22.784 20.0846 22.6498C20.1347 22.5156 20.2131 22.3937 20.3144 22.2924L25.2062 17.4006C25.299 17.3077 25.4093 17.234 25.5306 17.1838C25.6519 17.1335 25.782 17.1077 25.9133 17.1077H30.9991" stroke="#3DB079" stroke-width="1.5" stroke-linecap="round" stroke-linejoin="round"/>
<path d="M17.0723 16.9736L23.4873 15.1034C23.7164 15.0366 23.9619 15.054 24.1794 15.1524L28.5005 17.1076" stroke="#3DB079" stroke-width="1.5" stroke-linecap="round" stroke-linejoin="round"/>
<path d="M22 34.6077L18.2326 33.6658C18.0797 33.6276 17.938 33.5538 17.8191 33.4504L15 31" stroke="#3DB079" stroke-width="1.5" stroke-linecap="round" stroke-linejoin="round"/>
</svg>
