<svg width="48" height="48" viewBox="0 0 48 48" fill="none" xmlns="http://www.w3.org/2000/svg">
<rect width="48" height="48" rx="8" fill="#E9FAF2"/>
<path d="M24 31C27.866 31 31 27.866 31 24C31 20.134 27.866 17 24 17C20.134 17 17 20.134 17 24C17 27.866 20.134 31 24 31Z" stroke="#3DB079" stroke-width="1.5" stroke-linecap="round" stroke-linejoin="round"/>
<path d="M14.9736 30.3661L14.824 32.6867C14.8133 32.8355 14.8355 32.9847 14.889 33.1239C14.9425 33.263 15.026 33.3887 15.1337 33.4919C16.5719 34.8561 18.3124 35.861 20.213 36.4244C20.3562 36.466 20.5068 36.4756 20.6541 36.4523C20.8014 36.4291 20.9417 36.3737 21.0651 36.2901L23 35.0002H25L26.9349 36.2901C27.0583 36.3738 27.1986 36.4292 27.3459 36.4524C27.4932 36.4756 27.6438 36.4661 27.787 36.4245C29.6876 35.861 31.4281 34.8562 32.8663 33.4919C32.974 33.3887 33.0575 33.2631 33.111 33.1239C33.1646 32.9848 33.1867 32.8355 33.176 32.6868L33.0264 30.3663L34.0264 28.6342L36.1109 27.6035C36.2451 27.5384 36.3632 27.4446 36.457 27.3286C36.5508 27.2127 36.6178 27.0775 36.6534 26.9327C37.1157 25.005 37.1157 22.9953 36.6533 21.0676C36.6178 20.9228 36.5507 20.7876 36.457 20.6717C36.3632 20.5557 36.2451 20.4619 36.1109 20.3968L34.0265 19.3661L33.0265 17.6341L33.1761 15.3135C33.1868 15.1647 33.1646 15.0155 33.1111 14.8763C33.0576 14.7372 32.9741 14.6115 32.8664 14.5083C31.4282 13.1441 29.6877 12.1392 27.7871 11.5758C27.6439 11.5342 27.4933 11.5246 27.346 11.5479C27.1987 11.5711 27.0584 11.6265 26.935 11.7102L25.0001 13H23.0001L21.0652 11.7101C20.9418 11.6264 20.8015 11.571 20.6542 11.5478C20.5069 11.5246 20.3563 11.5341 20.2131 11.5757C18.3125 12.1392 16.5721 13.144 15.1338 14.5083C15.0262 14.6115 14.9426 14.7371 14.8891 14.8763C14.8356 15.0155 14.8134 15.1647 14.8241 15.3134L14.9737 17.634L13.9737 19.366L11.8892 20.3967C11.755 20.4618 11.6369 20.5556 11.5431 20.6716C11.4493 20.7875 11.3823 20.9227 11.3467 21.0675C10.8844 22.9952 10.8844 25.0049 11.3468 26.9326C11.3823 27.0774 11.4494 27.2126 11.5431 27.3285C11.6369 27.4445 11.755 27.5383 11.8892 27.6034L13.9736 28.6341L14.9736 30.3661Z" stroke="#3DB079" stroke-width="1.5" stroke-linecap="round" stroke-linejoin="round"/>
</svg>
