<svg width="191" height="34" viewBox="0 0 191 34" fill="none" xmlns="http://www.w3.org/2000/svg">
<path d="M48.3911 27.5976C47.8593 27.5976 47.4457 27.3637 47.1798 26.9252C46.8844 26.4867 46.8548 25.9897 47.0912 25.4927L55.0384 6.72402C55.3339 6.08086 55.777 5.75928 56.427 5.75928C57.1065 5.75928 57.5792 6.08086 57.8155 6.72402L65.7923 25.5512C65.9991 26.0774 65.9696 26.5452 65.7037 26.9545C65.4378 27.3638 65.0242 27.5976 64.4629 27.5976C64.1674 27.5976 63.9015 27.5099 63.6652 27.3637C63.3993 27.2176 63.222 26.9837 63.1038 26.7206L56.102 9.50132H56.8997L49.7796 26.7206C49.6615 27.0129 49.4547 27.2468 49.1888 27.393C48.8933 27.5392 48.657 27.5976 48.3911 27.5976ZM49.8683 22.8031L50.9909 20.4059H62.0698L63.222 22.8031H49.8683Z" fill="white"/>
<path d="M70.9047 27.5976C70.4911 27.5976 70.1365 27.4515 69.8706 27.1883C69.6047 26.896 69.457 26.5744 69.457 26.1651V7.22101C69.457 6.78249 69.6047 6.43168 69.8706 6.16856C70.1365 5.90545 70.4911 5.75928 70.9047 5.75928C71.3478 5.75928 71.7319 5.93469 72.0273 6.2855L84.3766 22.5108V7.22101C84.3766 6.78249 84.5243 6.43168 84.7902 6.16856C85.0856 5.90545 85.4106 5.75928 85.8242 5.75928C86.2674 5.75928 86.5924 5.90545 86.8583 6.16856C87.1242 6.43168 87.2423 6.78249 87.2423 7.22101V26.1651C87.2423 26.5744 87.1242 26.9252 86.8583 27.1883C86.5924 27.4807 86.2379 27.5976 85.8242 27.5976C85.647 27.5976 85.4402 27.5684 85.2038 27.4807C84.997 27.393 84.8198 27.276 84.672 27.1006L72.3819 10.8754V26.1359C72.3819 26.5452 72.2341 26.896 71.9682 27.1591C71.7024 27.4807 71.3478 27.5976 70.9047 27.5976Z" fill="white"/>
<path d="M99.5326 27.89C98.3213 27.89 97.1691 27.7146 96.076 27.3345C94.9829 26.9545 94.0375 26.4282 93.2103 25.7558C92.4126 25.0834 91.7922 24.3233 91.4376 23.4463C91.2604 23.0662 91.2604 22.6862 91.4376 22.3646C91.6149 22.043 91.9694 21.8091 92.4421 21.7214C92.7671 21.6337 93.1216 21.6922 93.4466 21.8676C93.7716 22.043 94.0375 22.3061 94.1852 22.657C94.4215 23.1247 94.7761 23.5632 95.3079 23.9433C95.8396 24.3233 96.4601 24.6449 97.1986 24.908C97.9372 25.1419 98.7054 25.2588 99.5031 25.2588C100.419 25.2588 101.246 25.1127 102.014 24.8496C102.782 24.5572 103.403 24.1772 103.876 23.6217C104.348 23.0955 104.585 22.4231 104.585 21.663C104.585 20.669 104.2 19.7919 103.403 19.0026C102.635 18.2133 101.335 17.7455 99.5326 17.5409C97.1986 17.307 95.3669 16.6346 94.0079 15.4944C92.6785 14.3543 91.999 12.951 91.999 11.2846C91.999 10.0568 92.3535 9.00433 93.033 8.15652C93.742 7.30871 94.6874 6.63631 95.8692 6.19779C97.0805 5.75927 98.4099 5.52539 99.8576 5.52539C101.01 5.52539 102.014 5.67156 102.871 5.99315C103.728 6.31473 104.466 6.75325 105.116 7.30871C105.766 7.86417 106.328 8.53657 106.771 9.29667C107.037 9.70596 107.155 10.086 107.096 10.4661C107.037 10.8169 106.859 11.1092 106.534 11.3139C106.18 11.5477 105.796 11.577 105.382 11.46C104.969 11.3431 104.644 11.08 104.437 10.7292C104.141 10.203 103.757 9.73519 103.344 9.35514C102.901 8.97509 102.398 8.68274 101.807 8.4781C101.217 8.27346 100.537 8.15652 99.7394 8.15652C98.3509 8.12728 97.1691 8.3904 96.2237 8.91662C95.2783 9.44285 94.8056 10.2614 94.8056 11.3723C94.8056 11.9278 94.9533 12.454 95.2488 12.9803C95.5442 13.5065 96.076 13.945 96.8737 14.2958C97.6418 14.6759 98.794 14.939 100.242 15.0852C102.487 15.319 104.23 15.9914 105.5 17.1023C106.741 18.2425 107.391 19.7042 107.391 21.5753C107.391 22.6277 107.155 23.5632 106.741 24.3526C106.298 25.1419 105.707 25.7851 104.969 26.3113C104.23 26.8375 103.373 27.2468 102.428 27.5099C101.542 27.773 100.537 27.89 99.5326 27.89Z" fill="white"/>
<path d="M121.809 27.8899C120.154 27.8899 118.647 27.6268 117.259 27.0713C115.87 26.5159 114.689 25.7558 113.714 24.7618C112.739 23.7678 111.971 22.5692 111.409 21.1951C110.848 19.8211 110.582 18.3301 110.582 16.6638C110.582 15.0266 110.848 13.5356 111.409 12.1616C111.941 10.7876 112.739 9.61819 113.714 8.62421C114.689 7.63023 115.9 6.84089 117.259 6.31467C118.647 5.75921 120.154 5.49609 121.809 5.49609C123.463 5.49609 124.97 5.75921 126.358 6.31467C127.717 6.87013 128.899 7.63023 129.904 8.62421C130.908 9.61819 131.676 10.7876 132.208 12.1616C132.74 13.5356 133.035 15.0266 133.035 16.6638C133.035 18.3009 132.769 19.8211 132.208 21.1951C131.647 22.5692 130.879 23.7386 129.904 24.7618C128.899 25.7558 127.717 26.5451 126.358 27.0713C124.97 27.6268 123.463 27.8899 121.809 27.8899ZM121.809 25.2588C123.02 25.2588 124.172 25.0541 125.177 24.6156C126.211 24.1771 127.097 23.5632 127.836 22.8031C128.604 22.043 129.165 21.1074 129.579 20.0842C129.992 19.0318 130.199 17.9209 130.199 16.693C130.199 15.4944 129.992 14.3542 129.579 13.3018C129.165 12.2493 128.604 11.343 127.836 10.5829C127.067 9.82284 126.181 9.20891 125.177 8.77038C124.143 8.33186 123.02 8.12722 121.809 8.12722C120.597 8.12722 119.445 8.33186 118.441 8.77038C117.407 9.20891 116.52 9.7936 115.782 10.5829C115.043 11.343 114.452 12.2786 114.039 13.3018C113.625 14.3542 113.418 15.4651 113.418 16.693C113.418 17.8916 113.625 19.0318 114.039 20.0842C114.452 21.1367 115.043 22.043 115.782 22.8031C116.52 23.5632 117.407 24.1771 118.441 24.6156C119.445 25.0541 120.568 25.2588 121.809 25.2588Z" fill="white"/>
<path d="M138.764 27.5976C138.35 27.5976 137.996 27.4515 137.73 27.1883C137.464 26.9252 137.316 26.5744 137.316 26.1651V7.22101C137.316 6.78249 137.464 6.43168 137.73 6.16856C137.996 5.90545 138.35 5.75928 138.764 5.75928H143.846C145.264 5.75928 146.505 6.05162 147.598 6.63632C148.691 7.22101 149.548 8.03959 150.168 9.0628C150.788 10.086 151.084 11.2846 151.084 12.6294C151.084 13.8865 150.788 15.0267 150.168 16.0207C149.548 17.0147 148.691 17.7748 147.598 18.3302C146.505 18.8857 145.264 19.178 143.846 19.178H140.241V26.1359C140.241 26.5452 140.094 26.896 139.828 27.1591C139.532 27.4807 139.207 27.5976 138.764 27.5976ZM140.241 16.5177H143.846C144.702 16.5177 145.47 16.3423 146.15 16.0207C146.8 15.6991 147.332 15.2313 147.716 14.6466C148.1 14.0619 148.277 13.3895 148.277 12.6587C148.277 11.8401 148.1 11.1092 147.716 10.4661C147.332 9.82291 146.829 9.32592 146.15 8.9751C145.5 8.62428 144.732 8.44887 143.846 8.44887H140.241V16.5177ZM150.493 27.5976C150.227 27.5976 149.991 27.5392 149.784 27.4222C149.577 27.3053 149.37 27.1299 149.223 26.896L144.141 18.798L147.007 17.9794L151.645 25.3758C151.97 25.9312 152.029 26.4282 151.793 26.896C151.527 27.3638 151.084 27.5976 150.493 27.5976Z" fill="white"/>
<path d="M157.172 28.0654C156.729 28.0654 156.345 27.9192 156.02 27.5976C155.695 27.276 155.547 26.896 155.547 26.4575C155.547 25.9897 155.724 25.6096 156.049 25.2881C156.374 24.9665 156.758 24.8203 157.201 24.8203C157.644 24.8203 158.029 24.9957 158.354 25.3173C158.679 25.6389 158.826 26.0189 158.826 26.4867C158.826 26.9252 158.679 27.3053 158.354 27.6268C158.029 27.89 157.644 28.0654 157.172 28.0654Z" fill="white"/>
<path d="M163.377 27.5976C163.052 27.5976 162.786 27.5099 162.579 27.276C162.372 27.0713 162.254 26.8082 162.254 26.4866V6.8409C162.254 6.51932 162.372 6.25621 162.579 6.05156C162.786 5.84692 163.052 5.72998 163.377 5.72998C163.702 5.72998 163.967 5.84692 164.174 6.05156C164.381 6.25621 164.499 6.51932 164.499 6.8409V26.5159C164.499 26.8375 164.381 27.1006 164.174 27.3052C163.938 27.5099 163.702 27.5976 163.377 27.5976Z" fill="white"/>
<path d="M179.094 27.8898C177.469 27.8898 175.933 27.5975 174.574 27.042C173.186 26.4866 172.004 25.6972 170.999 24.7033C169.995 23.7093 169.197 22.5107 168.665 21.1366C168.104 19.7918 167.809 18.3008 167.809 16.6637C167.809 15.0558 168.074 13.5648 168.636 12.22C169.197 10.846 169.965 9.6766 170.97 8.65338C171.974 7.6594 173.156 6.87006 174.545 6.3146C175.933 5.75914 177.44 5.4668 179.065 5.4668C180.69 5.4668 182.196 5.75914 183.555 6.3146C184.944 6.87006 186.126 7.6594 187.16 8.65338C188.164 9.64737 188.962 10.846 189.523 12.22C190.085 13.5941 190.35 15.0558 190.35 16.6637C190.35 18.2716 190.085 19.7918 189.523 21.1366C188.962 22.5107 188.194 23.68 187.16 24.7033C186.155 25.6972 184.944 26.4866 183.555 27.042C182.226 27.5975 180.719 27.8898 179.094 27.8898ZM179.094 25.8142C180.394 25.8142 181.606 25.5803 182.699 25.1418C183.821 24.674 184.767 24.0309 185.594 23.2123C186.421 22.3937 187.042 21.3997 187.514 20.2888C187.957 19.1779 188.194 17.9793 188.194 16.6637C188.194 15.3774 187.957 14.1788 187.514 13.0678C187.071 11.9569 186.421 10.9922 185.594 10.1444C184.767 9.32578 183.821 8.68262 182.699 8.21486C181.576 7.74711 180.394 7.54246 179.094 7.54246C177.765 7.54246 176.554 7.77634 175.46 8.21486C174.338 8.68262 173.392 9.32578 172.565 10.1444C171.738 10.9629 171.117 11.9569 170.645 13.0678C170.202 14.1788 169.965 15.3774 169.965 16.6637C169.965 17.9793 170.202 19.1779 170.645 20.2888C171.088 21.3997 171.738 22.3645 172.565 23.2123C173.392 24.0309 174.338 24.674 175.46 25.1418C176.554 25.5803 177.765 25.8142 179.094 25.8142Z" fill="white"/>
<path d="M21.2418 5.58381C21.2418 5.58381 14.6536 23.9432 12.4378 30.4626C11.9355 31.9243 10.9311 32.7136 9.80839 32.7136H1.29981C1.093 32.7136 0.886199 32.5967 0.768024 32.4505C0.649849 32.2751 0.590762 32.0412 0.679393 31.8366C8.53802 11.1676 10.4879 1.02319 13.5309 0.90625H19.7351C22.4826 0.90625 22.3054 3.09886 21.2418 5.58381Z" fill="url(#paint0_linear_160_3406)"/>
<path opacity="0.13" d="M21.2418 5.58381C21.2418 5.58381 14.6536 23.9432 12.4378 30.4626C11.9355 31.9243 10.9311 32.7136 9.80839 32.7136H1.29981C1.093 32.7136 0.886199 32.5967 0.768024 32.4505C0.649849 32.2751 0.590762 32.0412 0.679393 31.8366C8.53802 11.1676 10.4879 1.02319 13.5309 0.90625H19.7351C22.4826 0.90625 22.3054 3.09886 21.2418 5.58381Z" fill="url(#paint1_linear_160_3406)"/>
<path opacity="0.56" d="M13.8263 0.90625C13.7968 0.90625 13.7377 0.90625 13.7082 0.90625C10.7243 1.2863 8.74482 11.4308 0.97483 31.7781C0.886199 32.012 0.945286 32.2751 1.093 32.4505C1.21118 32.5675 1.38844 32.6552 1.5657 32.6552H1.29981C1.093 32.6552 0.886199 32.5382 0.768024 32.3921C0.649849 32.2167 0.590762 31.9828 0.679393 31.7781C8.53802 11.1676 10.4879 1.02319 13.5309 0.90625H13.8263Z" fill="url(#paint2_linear_160_3406)"/>
<path d="M31.7302 33.0645C31.1393 33.0937 30.1053 33.0645 29.3667 33.0645C28.894 33.0645 28.4804 32.7721 28.3031 32.3336C17.3128 5.96386 15.363 0.90625 13.5312 0.90625H20.5626C24.6397 0.90625 25.7623 1.2863 27.8008 5.37916C29.7212 9.26738 34.0937 19.9088 36.4867 25.9897C38.2002 30.3456 36.2503 32.9475 31.7302 33.0645Z" fill="url(#paint3_linear_160_3406)"/>
<path opacity="0.56" d="M30.1643 33.0937C29.8689 33.0937 29.603 33.0937 29.3667 33.0937C28.894 33.0937 28.4804 32.8013 28.3031 32.3628C17.3128 5.96386 15.363 0.90625 13.5312 0.90625H13.7971C15.6584 0.90625 17.6083 5.96386 28.5394 32.3628C28.7167 32.8013 29.1303 33.0937 29.603 33.0937C29.8098 33.0937 29.9871 33.0937 30.1643 33.0937Z" fill="url(#paint4_linear_160_3406)"/>
<path opacity="0.11" d="M31.7287 33.0645C31.1378 33.0938 30.1038 33.0645 29.3652 33.0645C28.8925 33.0645 28.4789 32.7722 28.3016 32.3337C17.6659 6.81173 15.5387 0.935547 13.707 0.935547C22.5406 0.935547 28.0357 27.393 36.9284 27.393C37.7261 30.9012 35.7466 32.9768 31.7287 33.0645Z" fill="url(#paint5_linear_160_3406)"/>
<defs>
<linearGradient id="paint0_linear_160_3406" x1="16.625" y1="6.2803" x2="4.67268" y2="32.954" gradientUnits="userSpaceOnUse">
<stop stop-color="#28A472"/>
<stop offset="1" stop-color="#65C785"/>
</linearGradient>
<linearGradient id="paint1_linear_160_3406" x1="4.30056" y1="36.5067" x2="14.9945" y2="7.4421" gradientUnits="userSpaceOnUse">
<stop stop-color="#F6EF7E"/>
<stop offset="1" stop-color="white" stop-opacity="0"/>
</linearGradient>
<linearGradient id="paint2_linear_160_3406" x1="12.8406" y1="-0.0764466" x2="2.533" y2="30.8533" gradientUnits="userSpaceOnUse">
<stop stop-color="#77CC66"/>
<stop offset="0.5084" stop-color="#80F8C2"/>
<stop offset="0.9916" stop-color="#77CC66"/>
</linearGradient>
<linearGradient id="paint3_linear_160_3406" x1="35.893" y1="33.2026" x2="18.9948" y2="1.66563" gradientUnits="userSpaceOnUse">
<stop stop-color="#28A472"/>
<stop offset="1" stop-color="#65C785"/>
</linearGradient>
<linearGradient id="paint4_linear_160_3406" x1="14.7918" y1="0.617762" x2="28.5048" y2="33.1359" gradientUnits="userSpaceOnUse">
<stop stop-color="#77CC66"/>
<stop offset="0.5084" stop-color="#80F8C2"/>
<stop offset="0.9916" stop-color="#77CC66"/>
</linearGradient>
<linearGradient id="paint5_linear_160_3406" x1="38.313" y1="33.473" x2="15.6219" y2="9.43702" gradientUnits="userSpaceOnUse">
<stop stop-color="#F6EF7E"/>
<stop offset="1" stop-color="white" stop-opacity="0"/>
</linearGradient>
</defs>
</svg>
