<svg width="32" height="32" viewBox="0 0 32 32" fill="none" xmlns="http://www.w3.org/2000/svg">
<path fill-rule="evenodd" clip-rule="evenodd" d="M4 16C4 21.9333 8.33333 26.8667 14 27.8667L14.0669 27.8132C14.0446 27.8088 14.0223 27.8045 14 27.8V19.3333H11V16H14V13.3333C14 10.3333 15.9333 8.66667 18.6667 8.66667C19.5333 8.66667 20.4667 8.8 21.3333 8.93333V12H19.8C18.3333 12 18 12.7333 18 13.6667V16H21.2L20.6667 19.3333H18V27.8C17.9777 27.8045 17.9554 27.8088 17.9331 27.8132L18 27.8667C23.6667 26.8667 28 21.9333 28 16C28 9.4 22.6 4 16 4C9.4 4 4 9.4 4 16Z" fill="white"/>
</svg>
