<svg width="32" height="32" viewBox="0 0 32 32" fill="none" xmlns="http://www.w3.org/2000/svg">
<path d="M24.4332 7.4839L5.16767 14.9146C3.85277 15.4422 3.86057 16.1756 4.928 16.5026L9.73287 18.0023L11.5713 23.6389C11.7948 24.2558 11.6847 24.5005 12.3325 24.5005C12.8324 24.5005 13.0542 24.2725 13.3327 24.0005C13.5097 23.8273 14.5611 22.8051 15.735 21.6638L20.7329 25.3565C21.6526 25.8639 22.3167 25.601 22.5457 24.5023L25.8265 9.04205C26.1624 7.69538 25.3131 7.08454 24.4332 7.4839ZM10.4869 17.6578L21.3171 10.8249C21.8578 10.497 22.3535 10.6733 21.9465 11.0346L12.673 19.4016L12.3119 23.2528L10.4869 17.6578Z" fill="white"/>
</svg>
