<svg width="32" height="32" viewBox="0 0 32 32" fill="none" xmlns="http://www.w3.org/2000/svg">
<path fill-rule="evenodd" clip-rule="evenodd" d="M25.3904 7.84725C26.4184 8.12402 27.2289 8.93456 27.5057 9.96256C28.0197 11.8406 27.9999 15.755 27.9999 15.755C27.9999 15.755 27.9999 19.6495 27.5057 21.5276C27.2289 22.5556 26.4184 23.3661 25.3904 23.6429C23.5123 24.1371 15.9999 24.1371 15.9999 24.1371C15.9999 24.1371 8.50739 24.1371 6.60954 23.6231C5.58154 23.3464 4.771 22.5358 4.49423 21.5078C4 19.6495 4 15.7352 4 15.7352C4 15.7352 4 11.8406 4.49423 9.96256C4.771 8.93456 5.60131 8.10425 6.60954 7.82748C8.48763 7.33325 15.9999 7.33325 15.9999 7.33325C15.9999 7.33325 23.5123 7.33325 25.3904 7.84725ZM19.8549 15.5979L13.6078 19.1959V11.9999L19.8549 15.5979Z" fill="white"/>
</svg>
