<svg width="269" height="272" viewBox="0 0 269 272" fill="none" xmlns="http://www.w3.org/2000/svg">
<path d="M232.046 95.7583C233.294 96.3816 233.606 97.3174 234.542 97.0049C234.229 96.0692 232.981 95.4459 232.046 95.7583Z" fill="#C5E7D7"/>
<path d="M232.98 97.0011L233.914 96.6891L232.357 96.6899L232.98 97.0011Z" fill="#C5E7D7"/>
<path d="M233.293 97.9364L233.604 97.3131L232.357 96.6907L233.293 97.9364Z" fill="#C5E7D7"/>
<path d="M229.548 92.9476L230.796 93.5709C231.108 94.5066 229.86 93.8833 230.484 94.1949C231.732 94.8182 231.42 93.8825 232.356 95.1299C232.668 94.5058 230.172 93.2592 231.108 92.9468C229.859 92.3235 230.172 93.2592 229.548 92.9476Z" fill="#C5E7D7"/>
<path d="M135.022 68.3529C134.095 68.6625 134.095 68.6625 135.022 68.3529C134.095 68.6625 134.095 68.6625 135.022 68.3529Z" fill="#C5E7D7"/>
<path d="M215.495 83.5897C214.871 83.2781 215.494 82.0299 214.246 82.9664C213.622 82.6547 213.622 82.6547 212.998 82.3431L213.622 82.6547C214.871 83.278 214.871 83.2781 215.495 83.5897Z" fill="#C5E7D7"/>
<path d="M22.1285 146.086C22.4398 145.463 22.4398 145.463 22.751 144.84C22.439 143.905 21.8173 146.709 22.1285 146.086C21.5053 145.775 21.5053 145.775 22.1285 146.086C22.4398 145.463 22.1285 146.086 22.1285 146.086Z" fill="#C5E7D7"/>
<path d="M68.5852 82.7372C68.8964 82.114 68.8964 82.114 68.5852 82.7372C67.6507 83.0492 68.8972 83.6717 67.9627 83.9837C67.9627 83.9837 68.274 83.3605 68.8972 83.6717L68.5852 82.7372Z" fill="#C5E7D7"/>
<path d="M68.9032 83.6671C69.8303 83.3576 69.8303 83.3576 68.9032 83.6671C69.8303 83.3576 69.212 83.0488 68.9032 83.6671Z" fill="#C5E7D7"/>
<path d="M135.327 61.4848C136.254 61.1752 136.254 61.1752 135.327 61.4848C136.254 61.1752 135.945 61.7936 135.327 61.4848Z" fill="#C5E7D7"/>
<path d="M77.3192 77.7453C77.3192 77.7453 77.628 77.1269 77.3192 77.7453C78.2463 77.4357 78.2463 77.4357 77.3192 77.7453Z" fill="#C5E7D7"/>
<path d="M55.4806 101.153C55.1686 100.218 55.4806 101.153 54.5462 101.465L54.2349 102.088C54.8582 102.399 55.1694 101.776 55.4806 101.153Z" fill="#C5E7D7"/>
<path d="M72.3104 81.4852L74.4906 80.2379L73.5561 80.5499C73.2448 81.1732 72.6217 80.8619 72.3104 81.4852Z" fill="#C5E7D7"/>
<path d="M63.2942 94.9099C65.1649 92.7253 67.6604 92.4121 68.907 89.9158C71.7142 88.9786 69.842 88.0436 72.6492 87.1063C73.5849 86.7939 74.8323 85.8574 75.1439 85.2333C76.0797 84.9209 77.3271 83.9844 78.2628 83.672L79.5102 82.7355L80.7576 81.799C81.6933 81.4866 82.9407 80.5501 83.8764 80.2377C87.931 78.364 91.9856 76.4902 95.1044 74.9289C107.269 70.8674 119.434 68.3658 132.848 68.0473C133.784 67.7348 133.16 67.4232 134.096 67.1108C134.72 67.4224 135.655 67.11 135.655 67.11C134.72 67.4224 135.344 67.7341 135.344 67.7341C136.904 67.7333 138.463 67.7325 140.023 67.7318C140.023 67.7318 140.023 67.7318 139.399 67.4201L138.775 67.1085C139.711 66.796 140.335 67.1077 140.335 67.1077L140.647 68.0434C143.454 67.1062 142.831 68.3543 145.327 68.0412C145.638 67.4171 148.446 66.4798 150.941 66.1666L151.565 66.4783C150.005 66.4791 151.254 67.1024 149.694 67.1031C150.942 67.7265 152.189 66.79 153.437 67.4133C153.437 67.4133 153.125 66.4775 153.749 66.7892C154.373 67.1008 154.373 67.1008 155.621 67.7241L154.686 68.0366C155.31 68.3482 155.621 67.7241 156.245 68.0358C156.245 68.0358 157.493 68.6591 157.182 69.2832C158.118 68.9707 158.742 69.2824 160.301 69.2817C159.053 68.6584 160.613 68.6576 160.613 68.6576L159.053 68.6583C161.237 68.9692 158.429 68.3467 158.742 69.2824C157.493 68.6591 159.989 68.3459 158.429 68.3467C160.613 68.6576 160.613 68.6576 163.109 68.3444C161.549 68.3451 163.42 67.7203 162.796 67.4087C164.356 67.4079 163.42 67.7203 164.044 68.032C164.668 68.3436 165.292 68.6553 166.228 68.3429C167.476 68.9662 165.917 68.9669 166.541 69.2786C165.605 69.591 162.484 68.0327 162.485 69.5925C161.861 69.2809 160.926 69.5933 159.99 69.9057C160.614 70.2174 161.862 70.8407 163.422 70.8399L163.733 70.2159C164.358 70.5275 164.669 69.9034 165.293 70.2151C165.293 70.2151 165.606 71.1508 166.541 70.8384L165.917 70.5267C167.477 70.526 167.477 70.526 169.037 70.5252C167.789 69.9019 167.789 69.9019 166.541 69.2786C166.852 68.6545 167.165 69.5903 168.1 69.2779L169.036 68.9654C170.284 69.5887 168.724 69.5895 169.973 70.2128C170.597 70.5244 171.532 70.212 172.157 70.5237C172.781 70.8353 173.716 70.5229 174.34 70.8346C174.34 70.8346 174.965 71.1462 175.276 70.5222C175.9 70.8338 176.836 70.5214 177.46 70.833C178.708 71.4563 179.332 71.768 179.332 71.768L180.58 72.3913L180.269 73.0154C181.828 73.0146 181.829 73.0146 182.764 72.7022C184.012 73.3255 185.572 73.3248 186.196 73.6364C186.196 73.6364 186.196 73.6364 186.82 73.9481L186.196 73.6364C187.444 74.2597 187.132 73.324 188.38 73.9473C188.38 73.9473 188.38 73.9473 189.004 74.259C189.004 74.259 189.004 74.259 188.38 73.9473C189.317 75.1947 189.94 73.9465 191.188 74.5698C191.188 74.5698 191.188 74.5699 190.564 74.2582C191.188 74.5699 191.501 75.5056 191.812 74.8815C191.812 74.8815 191.812 74.8815 192.436 75.1932L193.06 75.5048C193.06 75.5048 193.06 75.5048 192.436 75.1932C192.436 75.1932 193.372 74.8807 193.06 75.5048L194.308 76.1281L194.933 76.4398C195.557 76.7514 195.557 76.7515 195.557 76.7515C197.117 78.3105 198.365 77.374 199.925 78.933C200.861 78.6206 199.613 77.9973 199.613 77.9973C199.613 77.9973 201.173 77.9965 201.797 78.3082C202.109 79.2439 204.605 80.4905 204.294 81.1146C205.542 81.7379 203.981 80.1789 204.605 80.4905C203.981 80.1789 203.357 79.8672 203.669 79.2432C203.98 78.6191 205.229 79.2424 205.853 79.5541L205.541 80.1781C206.789 80.8014 207.412 79.5533 208.037 79.8649C209.285 80.4882 208.349 80.8007 208.037 81.4247L209.285 82.048L208.974 82.6721C209.598 82.9838 210.534 82.6713 210.846 83.6071C209.91 83.9195 212.407 85.1661 211.159 84.5428C211.783 84.8545 212.094 84.2304 212.407 85.1661C213.342 84.8537 211.783 84.8545 212.094 84.2304C212.406 83.6063 213.342 84.8537 214.278 84.5413C213.966 85.1654 213.342 84.8537 214.591 85.477C214.591 85.477 215.526 85.1646 215.839 86.1003C216.15 85.4763 217.087 86.7236 217.087 86.7236C216.463 86.412 216.15 85.4762 216.774 85.7879C217.398 86.0995 217.398 86.0996 218.647 86.7229L218.023 86.4112C218.958 86.0988 218.959 87.6586 220.207 88.2819C219.583 87.9702 219.583 87.9703 218.647 88.2827C219.271 88.5943 220.52 89.2176 221.455 88.9052L221.768 89.841L223.016 90.4643C223.952 91.7116 221.456 90.465 221.456 90.465C222.393 91.7124 223.016 90.4643 223.952 91.7116L223.328 91.4C223.952 91.7117 224.576 92.0233 224.576 92.0233C224.576 92.0233 224.576 92.0233 223.952 91.7116C224.888 91.3992 226.449 92.9583 226.448 91.3985L225.824 91.0868C227.072 91.7101 228.008 91.3977 228.32 92.3334C228.633 93.2692 227.384 92.6458 227.384 92.6458C228.008 92.9575 228.32 92.3334 229.568 92.9567C228.944 92.6451 229.256 92.021 229.88 92.3327C229.256 92.021 228.319 90.7736 228.008 91.3977L227.384 91.0861C226.76 90.7744 227.071 90.1503 227.071 90.1503C226.135 88.9029 226.76 90.7744 224.887 89.8394C224.263 89.5278 223.015 88.9044 222.703 89.5285C222.391 88.5928 221.455 88.9052 221.143 87.9695C221.766 86.7214 223.639 89.2161 224.263 89.5278C223.951 88.5921 225.199 89.2153 225.199 89.2153C225.199 89.2153 224.575 88.9037 223.951 88.592C223.327 88.2804 222.703 87.9687 222.703 87.9687C222.703 87.9687 222.39 87.033 221.766 86.7214C221.142 86.4097 220.83 87.0337 220.518 86.098C220.518 86.098 220.518 86.098 220.83 85.4739C220.206 85.1623 220.206 85.1623 219.582 84.8506C218.957 84.539 220.517 84.5382 219.893 84.2266C218.957 84.539 218.645 83.6032 218.021 83.2916C217.709 83.9157 214.589 82.3574 216.15 83.9164L213.966 83.6055C213.653 82.6698 215.525 83.6048 215.213 82.6691L216.461 83.2924C216.773 82.6683 213.029 82.3582 213.028 80.7984C212.404 80.4867 212.404 80.4867 211.468 79.2393L211.156 79.8634C210.532 79.5518 210.22 78.616 210.22 78.616C209.596 78.3044 209.596 78.3044 208.971 77.9927C208.971 77.9927 208.972 77.9927 209.596 78.3044C209.283 77.3686 208.971 77.9927 208.971 77.9927C208.971 77.9927 208.347 77.6811 207.723 77.3694L207.099 77.0578C207.099 77.0578 207.412 77.9935 208.036 78.3051C206.164 77.3702 204.915 76.7469 203.979 75.4995L204.915 75.187C204.291 74.8754 203.355 75.1878 203.355 75.1878C203.355 75.1878 203.355 75.1878 202.731 74.8761L202.418 73.9404C202.418 73.9404 202.418 73.9404 201.794 73.6288C201.483 74.2528 199.61 73.3179 199.61 73.3179C200.234 73.6295 200.235 73.6296 200.859 73.9412C199.923 74.2536 199.299 73.9419 199.299 73.9419C200.859 73.9412 198.362 72.6946 200.235 73.6295C199.298 72.3822 199.299 73.9419 198.051 73.3186L197.427 73.007C197.738 72.3829 198.675 73.6303 198.986 73.0062L198.362 72.6946C199.298 72.3822 201.17 73.3171 202.418 73.9404C202.418 73.9404 201.794 73.6288 201.17 73.3171C200.546 73.0055 199.922 72.6938 199.922 72.6938C196.49 71.7596 192.746 69.8897 189.002 69.5796L188.066 69.892C187.442 69.5803 186.194 68.957 185.882 68.0213C186.506 68.3329 186.506 68.3329 186.194 68.957C185.882 69.5811 185.882 69.5811 184.634 68.9578C184.01 68.6461 183.386 68.3345 183.386 68.3345L184.01 68.6461C184.01 68.6461 182.762 68.0228 183.698 67.7104L183.074 67.3987C182.45 67.0871 183.385 66.7746 183.385 66.7746C181.825 66.7754 180.89 67.0878 179.33 67.0886L179.642 66.4645C178.393 65.8412 177.146 66.7777 175.898 66.1544C175.898 66.1544 176.522 66.4661 176.834 65.842C174.961 64.907 172.778 64.5961 171.218 64.5969C170.594 64.2852 169.346 63.6619 168.41 63.9744C167.786 63.6627 166.538 63.0394 165.602 63.3518L164.666 63.6642L163.418 63.0409C159.362 61.7951 156.242 61.7966 152.187 62.1105C150.627 62.1113 151.563 61.7989 150.939 61.4872C148.131 60.8647 147.507 62.1128 145.012 62.426C145.324 61.8019 146.259 61.4895 144.7 61.4903C144.7 61.4903 144.388 62.1143 143.764 61.8027L144.075 61.1786C143.451 60.867 142.516 61.1794 141.892 60.8677C139.708 60.5568 137.525 61.8058 135.653 62.4306C133.469 62.1197 135.965 61.8065 135.341 61.4948C136.901 61.4941 136.276 61.1824 136.276 61.1824C135.341 61.4949 134.405 61.8073 134.093 60.8715C133.157 61.184 132.533 60.8723 131.597 61.1847C132.533 60.8723 132.533 60.8723 132.221 61.4964C131.597 61.1847 129.102 61.4979 129.413 60.8739C124.422 61.5002 118.807 61.8149 113.504 63.0653C112.569 63.3778 114.128 63.377 114.128 63.377C112.881 64.3135 113.193 63.6895 112.257 64.0019L112.569 63.3778C111.009 63.3786 109.45 64.9391 108.514 65.2515C108.826 64.6274 106.954 65.2523 108.202 64.3158C107.266 64.6282 106.017 62.4451 105.705 63.0692L107.266 64.6282L106.33 64.9406C105.706 64.629 104.77 64.9414 104.146 64.6298C103.522 64.3181 105.082 64.3173 105.394 63.6932C105.081 62.7575 103.21 63.3824 104.145 63.0699C103.21 63.3824 104.77 63.3816 103.834 63.694C102.898 64.0064 102.586 64.6305 101.651 64.9429L97.9085 67.7524C97.2845 67.4408 96.9728 68.0648 96.3487 67.7532L96.6604 67.1291C95.7247 67.4415 95.7247 67.4415 94.789 67.754C95.1006 67.1299 95.7246 67.4415 95.7246 67.4415L94.789 67.754C94.789 67.754 94.4773 68.378 95.1013 68.6896C94.478 69.9378 94.1663 70.5619 91.6708 70.875C90.111 70.8758 92.9182 69.9386 92.2941 69.6269C89.7986 69.9401 90.1118 72.4357 88.552 72.4364C86.6806 73.0613 87.3046 73.3729 85.4332 73.9977C85.7448 73.3737 83.8734 73.9985 83.8734 73.9985L84.1851 73.3744C83.8734 73.9985 83.2493 73.6868 83.2493 73.6868C83.8734 73.9985 81.0662 74.9358 80.4429 76.1839L81.0669 76.4955C80.1312 76.808 79.5079 78.0561 78.5722 78.3685C77.3248 79.305 77.9489 79.6167 76.7015 80.5532C76.0774 80.2415 76.0774 80.2415 75.7649 79.3058C76.389 79.6174 76.7008 78.9934 77.6365 78.681C79.1955 77.1204 79.8188 75.8722 81.6902 75.2474C82.3135 73.9992 80.4428 76.1839 79.8188 75.8722C80.1304 75.2482 81.0662 74.9358 81.3779 74.3117C80.4421 74.6241 80.7545 75.5598 79.8188 75.8722C78.5714 76.8087 77.9473 76.4971 77.0116 76.8095C76.6999 77.4336 77.0124 78.3693 75.1409 78.9941L75.4526 78.3701C73.2695 79.619 74.8292 79.6182 73.5819 80.5547C74.5176 80.2423 73.2702 81.1788 74.206 80.8664C73.8943 81.4904 72.6469 82.427 71.7112 82.7394C72.6469 82.427 72.9586 81.8029 73.8943 81.4904L74.206 80.8664C75.1417 80.554 75.7657 80.8656 75.4541 81.4897C75.4541 81.4897 75.7658 80.8656 76.3899 81.1773C76.7023 82.113 75.4541 81.4897 75.1424 82.1137L75.4541 81.4897C76.0782 81.8013 74.2067 82.4261 73.5834 83.6743C72.6476 83.9867 71.712 84.2992 71.0879 83.9875L72.3352 83.051C71.3995 83.3634 71.0879 83.9875 70.1521 84.2999C70.1521 84.2999 70.1521 84.2999 69.528 83.9882C68.5923 84.3007 68.2807 84.9248 67.3449 85.2372L67.969 85.5488C68.2807 84.9248 69.2164 84.6123 68.9047 85.2364C67.6573 86.1729 67.0333 85.8613 66.4093 85.5496C66.0968 84.6139 67.6566 84.6131 67.9682 83.989C67.3442 83.6774 66.7208 84.9255 64.8494 85.5503C64.537 84.6146 66.0968 84.6139 66.4085 83.9898C65.1611 84.9263 65.1611 84.9263 63.9137 85.8628L64.537 84.6146L63.6013 84.927C65.1603 83.3665 62.9772 84.6154 63.6005 83.3673C62.6648 83.6797 62.9772 84.6154 62.0415 84.9278C62.6655 85.2395 63.6013 84.927 62.9779 86.1752L62.0423 86.4876C61.4182 86.176 62.6655 85.2395 61.7298 85.5519L61.1065 86.8C61.1065 86.8 62.0423 86.4876 61.7306 87.1117C60.7949 87.4241 61.1073 88.3599 60.7957 88.9839C60.484 89.608 59.5482 89.9204 59.5482 89.9204C58.6133 91.7926 57.3658 92.7291 56.4309 94.6013C57.0542 93.3532 55.8068 94.2897 55.1828 93.978C55.8061 92.7299 55.8061 92.7299 55.182 92.4182C54.8704 93.0423 54.5587 93.6664 55.1828 93.978C53.9354 94.9145 54.8712 94.6021 53.6238 95.5386C52.688 95.851 53.3113 94.6029 53.3113 94.6029C52.0639 95.5394 53.6237 95.5386 52.3763 96.4751C51.4406 96.7875 51.129 97.4116 51.4414 98.3473C49.8816 98.3481 49.8824 99.9079 49.2583 99.5962C47.6992 101.157 49.8823 99.9079 49.8823 99.9079C49.5707 100.532 48.3233 101.468 48.0117 102.093C48.3233 101.468 48.3233 101.468 48.635 100.844L48.0109 100.533C45.8278 101.782 47.7 102.717 46.1409 104.277C46.7643 103.029 46.4527 103.653 46.1402 102.717C45.8286 103.341 44.5812 104.278 45.5169 103.966C45.2053 104.59 44.2695 104.902 43.9578 105.526C43.6462 106.15 43.3345 106.774 43.0229 107.398C42.3996 108.646 41.4639 108.959 40.5281 109.271C39.9048 110.519 39.2815 111.768 38.3457 112.08C37.7224 113.328 36.4751 114.265 35.8518 115.513C34.9168 117.385 36.7875 115.2 35.8525 117.073C35.5401 116.137 34.6051 118.009 33.6694 118.321C33.0461 119.57 32.4228 120.818 32.1111 121.442C31.4878 122.69 31.1762 123.314 30.5529 124.562C30.5529 124.562 30.5529 124.562 30.8645 123.938C29.9296 125.81 29.3062 127.059 28.6829 128.307C26.8122 130.491 26.5014 132.675 25.8788 135.483C25.8788 135.483 25.2547 135.172 25.5664 134.547C24.9431 135.796 24.0081 137.668 24.0089 139.228C22.4499 140.788 24.0097 140.787 22.4506 142.348C21.8273 143.596 21.5157 144.22 21.204 144.844C20.8931 147.028 21.8295 148.275 20.5829 150.772C19.6472 151.084 20.5822 149.212 19.9581 148.9C19.6464 149.524 20.2706 149.836 19.9589 150.46C19.6465 149.524 19.9589 150.46 19.3348 150.148C19.0231 150.773 19.648 152.644 19.648 152.644C19.648 152.644 19.648 152.644 19.9596 152.02C20.272 152.956 19.3371 154.828 19.3379 156.388C19.6496 155.764 20.2729 154.515 19.9612 155.14C19.0263 157.012 20.2743 157.635 20.2751 159.195C19.6518 160.443 19.3386 157.947 19.3386 157.947C19.3386 157.947 18.0913 158.884 18.4029 158.26C17.7796 159.508 18.716 160.755 18.7168 162.315C18.7176 163.875 19.0308 166.371 18.4075 167.619L18.7191 166.995C18.7191 166.995 18.7199 168.554 19.3439 168.866C19.3439 168.866 18.7207 170.114 18.4083 169.179C19.3448 170.426 18.7222 173.234 19.6587 174.481C19.3471 175.105 18.7229 174.794 19.0346 174.17C19.0338 172.61 19.0339 172.61 19.3455 171.986C19.658 172.921 19.3463 173.546 18.7222 173.234C19.0347 174.17 19.3478 176.665 19.9719 176.977C19.6602 177.601 19.3485 178.225 18.7245 177.913C18.726 181.033 20.2835 176.353 20.285 179.472C19.6617 180.72 19.3486 178.225 19.3494 179.785C17.7903 181.345 20.2858 181.032 20.2865 182.592C19.3508 182.904 19.9742 181.656 19.3509 182.904C19.3516 184.464 20.5997 185.087 20.6005 186.647L19.9765 186.336C20.2889 187.271 19.978 189.455 20.2904 190.391C20.2911 191.951 20.6028 191.327 19.9795 192.575L20.6036 192.886C20.9153 192.262 20.9144 190.703 20.602 189.767C20.9144 190.703 21.2254 188.519 21.8494 188.83C23.0961 186.334 23.0946 183.214 23.093 180.095C22.4682 178.223 23.0915 176.975 22.7783 174.48C22.1542 174.168 22.7783 174.48 22.4651 171.984C22.7775 172.92 23.0892 172.296 23.4009 171.672L23.0884 170.736C23.4001 170.112 24.335 168.24 24.0226 167.304C24.6459 166.056 24.0226 167.304 24.6467 167.616C24.9584 166.992 24.3342 166.68 24.6459 166.056C24.6451 164.496 25.2685 163.248 25.2677 161.688C24.6436 161.376 25.2669 160.128 24.9545 159.193C24.9545 159.193 25.2662 158.569 25.5778 157.944L25.2654 157.009C24.953 156.073 25.8888 155.761 25.5763 154.825C25.2639 153.889 26.1989 152.017 27.4463 151.08C27.7564 147.337 28.6906 143.905 29.9372 141.408C31.4955 138.288 32.7421 135.792 34.612 132.047C34.9237 131.423 33.6763 132.36 33.9879 131.736C34.2996 131.112 34.2996 131.112 34.9229 129.863C34.6112 130.487 34.6112 130.487 34.6112 130.487L33.9879 131.736C33.6763 132.36 33.6762 132.36 33.3646 132.984C33.6762 132.36 33.0522 132.048 33.6755 130.8C33.6755 130.8 33.6755 130.8 33.3639 131.424C33.6755 130.8 33.6755 130.8 33.9872 130.176C34.2989 129.552 34.2989 129.552 34.2989 129.552L35.8578 127.991C35.8571 126.431 37.1045 125.495 37.1045 125.495C37.7285 125.807 36.4812 126.743 36.7936 127.679C36.7936 127.679 36.7936 127.679 37.1053 127.055L37.4169 126.431L36.7928 126.119L37.4161 124.871C37.4161 124.871 37.4161 124.871 37.7278 124.247L38.0394 123.623C38.3518 124.558 38.3511 122.999 38.9752 123.31C40.8459 121.126 40.5335 120.19 42.4042 118.005C42.0925 118.629 42.0917 117.07 42.4034 116.445C42.715 115.821 42.7151 115.821 43.0275 116.757L43.3392 116.133C44.5865 115.197 44.8982 114.572 46.4572 113.012C46.7689 112.388 47.0805 111.764 47.7038 110.516L48.3278 110.827C49.5752 109.891 48.3271 109.267 49.2628 108.955C48.6387 108.643 48.3271 109.267 47.703 108.956C48.3271 109.267 48.9505 108.019 48.9505 108.019C49.5738 106.771 49.262 107.395 49.8861 107.707L50.1978 107.083C50.5094 106.459 50.8219 107.394 50.8219 107.394C51.1336 106.77 52.381 105.834 52.6926 105.21L52.381 105.834L53.6283 104.897C53.94 104.273 54.5633 103.025 55.8107 102.089L56.123 103.024C57.0588 102.712 56.4347 102.4 56.4347 102.4C57.058 101.152 57.6822 101.464 58.6179 101.151C60.1754 96.4713 62.3593 96.7822 63.2942 94.9099ZM194.621 77.0639C195.557 76.7514 195.557 76.7514 194.621 77.0639V77.0639ZM184.012 73.3255C185.572 73.3247 184.637 73.6372 185.261 73.9489C184.012 73.3255 183.388 73.0139 181.829 73.0147C181.829 73.0147 181.829 73.0146 182.453 73.3263C181.829 73.0146 181.829 73.0146 181.204 72.703C182.452 71.7665 184.636 73.6372 184.012 73.3255ZM209.596 79.8642C208.972 79.5525 208.972 79.5525 209.596 79.8642V79.8642ZM203.044 77.3717C202.42 77.0601 202.42 77.0601 203.044 77.3717V77.3717ZM190.251 71.7627L189.003 71.1393C189.003 71.1393 189.627 71.451 190.251 71.7627ZM105.707 66.1888C105.707 66.1888 106.954 65.2523 106.018 65.5647C105.707 66.1888 105.083 65.8771 105.083 65.8771C104.771 66.5012 105.395 66.8128 105.707 66.1888ZM69.8405 84.924C69.5281 83.9883 69.5281 83.9883 69.8405 84.924C69.5281 83.9883 69.528 83.9882 69.528 83.9882L68.5924 84.3007C69.5289 85.5481 68.5931 85.8605 69.8405 84.924Z" fill="#C5E7D7"/>
<path d="M226.759 93.8892C227.695 95.1366 228.631 94.8242 228.943 94.2001C227.694 93.5768 227.07 93.2652 225.822 92.6418L226.759 93.8892Z" fill="#C5E7D7"/>
<path d="M227.364 91.0798C227.676 90.4549 227.676 90.4549 227.364 91.0798L226.739 90.7677L227.364 91.0798Z" fill="#C5E7D7"/>
<path d="M217.389 87.6521C217.701 87.0272 217.076 86.7151 216.764 87.34C217.389 87.652 217.389 87.6521 217.389 87.6521Z" fill="#C5E7D7"/>
<path d="M212.069 79.5426C211.134 79.8546 210.822 78.9202 210.822 78.9202C210.822 78.9202 211.757 80.1659 212.069 79.5426Z" fill="#C5E7D7"/>
<path d="M210.504 84.2297C210.816 85.1642 211.75 84.8522 212.374 85.1635C211.439 85.4755 210.504 84.2297 210.504 84.2297Z" fill="#C5E7D7"/>
<path d="M205.216 77.689C205.528 77.0649 205.841 78.0006 206.465 78.3123C206.465 78.3123 205.84 78.0006 205.216 77.689C206.465 78.3123 206.465 78.3123 207.713 78.9356C207.089 78.6239 206.152 77.3766 206.152 77.3766C205.528 77.0649 204.592 77.3773 205.216 77.689Z" fill="#C5E7D7"/>
<path d="M208.642 83.2944C209.265 83.6056 208.954 84.2289 210.2 84.8513C210.2 84.8513 209.888 83.9169 208.642 83.2944L209.576 82.9824C208.953 82.6712 209.888 83.9169 208.642 83.2944Z" fill="#C5E7D7"/>
<path d="M202.407 75.4956C203.655 76.119 204.903 76.7423 205.215 76.1182C204.591 75.8066 203.031 75.8073 202.407 75.4956Z" fill="#C5E7D7"/>
<path d="M206.469 81.4329C206.781 82.3673 205.535 81.7449 206.469 81.4329C207.092 81.7441 206.781 82.3673 207.092 81.7441C206.158 82.0561 207.092 81.7441 206.469 81.4329Z" fill="#C5E7D7"/>
<path d="M203.036 80.4938L201.789 79.8713L202.101 80.8058C203.971 81.7395 202.724 81.117 203.036 80.4938Z" fill="#C5E7D7"/>
<path d="M201.788 79.8627L199.607 79.5522C201.164 79.5514 201.164 79.5514 201.788 79.8627Z" fill="#C5E7D7"/>
<path d="M183.362 68.3308C183.053 68.9492 183.672 69.258 183.362 68.3308C183.98 68.6396 182.744 68.022 183.362 68.3308Z" fill="#C5E7D7"/>
<path d="M185.873 74.2537C185.249 73.942 183.689 73.9428 183.065 73.6311C183.689 73.9428 185.562 74.8778 185.873 74.2537Z" fill="#C5E7D7"/>
<path d="M154.048 69.2767C154.671 69.5879 155.605 69.2759 155.605 69.2759C154.671 69.5879 154.048 69.2767 154.048 69.2767C153.113 69.5887 153.737 69.8999 154.048 69.2767Z" fill="#C5E7D7"/>
<path d="M147.182 68.9767C147.494 68.3519 148.119 68.6639 147.182 68.9767C147.494 68.3519 146.557 68.6647 147.182 68.9767Z" fill="#C5E7D7"/>
<path d="M99.4569 66.1834C98.52 66.4962 98.52 66.4962 98.52 66.4962C99.4569 66.1834 98.8321 65.8714 99.4569 66.1834Z" fill="#C5E7D7"/>
<path d="M91.3333 68.3718L92.5797 68.9942C93.5142 68.6822 91.6453 69.3063 92.2678 68.0598L91.3333 68.3718Z" fill="#C5E7D7"/>
<path d="M88.5225 69.3219C87.5868 69.6343 86.9635 70.8825 86.3394 70.5708C84.1563 71.8197 87.5876 71.1942 84.4688 72.7555C87.276 71.8182 85.4037 70.8833 87.2752 70.2584C86.3395 70.5708 88.2109 69.946 88.5225 69.3219Z" fill="#C5E7D7"/>
<path d="M89.4706 70.5584L88.5337 70.8712C88.5337 70.8712 89.1586 71.1833 89.4706 70.5584Z" fill="#C5E7D7"/>
<path d="M84.1718 71.8172L83.2348 72.13L84.1718 71.8172Z" fill="#C5E7D7"/>
<path d="M81.9911 73.0587L82.3024 72.4354C82.3024 72.4354 81.0567 73.3707 81.9911 73.0587Z" fill="#C5E7D7"/>
<path d="M78.237 74.3079C77.3025 74.6199 76.68 75.8664 78.237 74.3079C77.9257 74.9311 77.3025 74.6199 78.237 74.3079Z" fill="#C5E7D7"/>
<path d="M70.4661 80.5545C70.7773 79.9313 71.4006 80.2425 70.7773 79.9312C71.7118 79.6192 70.7773 79.9313 70.4661 80.5545Z" fill="#C5E7D7"/>
<path d="M72.0025 82.111C72.6258 82.4222 73.2482 81.1757 73.8715 81.487C72.937 81.799 72.937 81.799 72.0025 82.111Z" fill="#C5E7D7"/>
<path d="M68.8756 80.5565C69.1868 79.9333 69.1868 79.9333 70.1212 79.6213C69.81 80.2445 68.8756 80.5565 68.8756 80.5565Z" fill="#C5E7D7"/>
<path d="M67.3405 82.1237C65.7807 82.1245 65.4691 82.7485 65.1574 83.3726L66.4055 83.9959C66.7172 83.3718 66.7164 81.812 67.3405 82.1237L68.2755 80.2515C67.6522 81.4996 68.2762 81.8113 67.3405 82.1237Z" fill="#C5E7D7"/>
<path d="M70.7579 81.4904C70.4467 82.1136 69.5123 82.4257 69.5123 82.4257C70.4475 83.6714 70.4467 82.1136 70.7579 81.4904Z" fill="#C5E7D7"/>
<path d="M61.4088 87.7376L61.0976 88.3608C60.7864 88.9841 60.7864 88.9841 60.7864 88.9841L61.0976 88.3608C60.4744 88.0496 60.4744 88.0496 61.4088 87.7376Z" fill="#C5E7D7"/>
<path d="M60.4651 88.0461L59.8418 87.7349L59.2193 88.9813L60.4651 88.0461Z" fill="#C5E7D7"/>
<path d="M58.6021 88.6698L59.2253 88.981L59.8478 87.7345L58.6021 88.6698Z" fill="#C5E7D7"/>
<path d="M56.1021 90.5397C57.0366 90.2277 57.971 89.9157 57.3478 89.6044C57.0366 90.2277 56.7254 90.8509 56.1021 90.5397Z" fill="#C5E7D7"/>
<path d="M53.9189 104.265C53.3005 103.956 53.3005 103.956 53.9189 104.265C52.9917 104.575 53.3005 103.956 53.9189 104.265Z" fill="#C5E7D7"/>
<path d="M52.0525 104.898L51.4292 106.146C52.6765 105.209 52.0525 104.898 52.6758 103.65C52.3641 104.274 52.0525 104.898 52.0525 104.898Z" fill="#C5E7D7"/>
<path d="M38.035 123.628C37.4109 123.316 37.411 123.316 37.7227 122.692C37.0993 123.94 36.7877 124.564 36.1644 125.812C36.1644 125.812 36.4767 126.748 36.7884 126.124L37.4117 124.876C38.3474 124.563 37.4117 124.876 38.035 123.628Z" fill="#C5E7D7"/>
<path d="M21.5192 183.213C20.9008 182.905 20.9008 182.905 21.5192 183.213C21.2104 183.832 21.2096 182.286 21.5192 183.213Z" fill="#C5E7D7"/>
<path d="M212.562 60.9993L201.527 101.933L264.563 95.7861L212.562 60.9993Z" fill="#C5E7D7"/>
</svg>
