<svg width="128" height="41" viewBox="0 0 128 41" fill="none" xmlns="http://www.w3.org/2000/svg">
<g clip-path="url(#clip0_160_3705)">
<path d="M36.6939 29.057C36.4931 28.5573 36.3049 28.032 36.1041 27.5835L35.1755 25.4438L35.1379 25.4054C32.3771 19.2554 29.428 13.0029 26.3033 6.85289L26.1779 6.59664C25.8641 5.99446 25.5504 5.32821 25.2241 4.71321C24.8226 3.98289 24.4335 3.20133 23.7935 2.4582C23.1697 1.68065 22.3846 1.0542 21.4948 0.624038C20.6051 0.193879 19.6329 -0.0292511 18.6484 -0.0292511C17.664 -0.0292511 16.6918 0.193879 15.8021 0.624038C14.9123 1.0542 14.1272 1.68065 13.5033 2.4582C12.9135 3.20133 12.4743 3.98289 12.0728 4.71321C11.759 5.37946 11.4453 6.03289 11.119 6.63508L10.9935 6.89133C7.91903 13.0413 4.91982 19.2938 2.15903 25.4438L2.08374 25.5207C1.80766 26.187 1.48138 26.8788 1.16766 27.622C0.966874 28.0704 0.76609 28.5573 0.565305 29.0954C0.0232287 30.5045 -0.149873 32.0335 0.0630589 33.5317C0.275991 35.0299 0.867608 36.4456 1.7796 37.6393C2.6916 38.833 3.8925 39.7634 5.26394 40.3389C6.63538 40.9145 8.13004 41.1152 9.6006 40.9213C11.0104 40.7318 12.368 40.2524 13.5912 39.512C15.2226 38.5766 16.7912 37.2185 18.548 35.2582C20.3049 37.2185 21.9112 38.5766 23.5049 39.5248C25.0375 40.4432 26.7731 40.9502 28.5496 40.9982C30.6068 41.0069 32.5977 40.2554 34.1546 38.8825C35.7115 37.5096 36.7294 35.6079 37.0202 33.5285C37.3563 32.0343 37.2426 30.4713 36.6939 29.0441V29.057ZM18.6735 31.1838C16.5151 28.3651 15.1096 25.777 14.6328 23.5604C14.4352 22.739 14.3926 21.8868 14.5073 21.0491C14.5951 20.3957 14.8335 19.8191 15.1598 19.3323C15.9128 18.2176 17.2304 17.5257 18.6735 17.5257C19.3589 17.5043 20.0387 17.657 20.652 17.9701C21.2653 18.2832 21.7928 18.7468 22.1873 19.3195C22.5135 19.832 22.752 20.3957 22.8273 21.0491C22.9528 21.7923 22.9026 22.6507 22.7018 23.5604C22.2249 25.7385 20.8194 28.3523 18.6735 31.1838ZM34.661 33.0801C34.5184 34.1358 34.1074 35.1349 33.4689 35.9779C32.8304 36.8209 31.9866 37.4783 31.0218 37.8848C30.068 38.2948 29.0139 38.4101 27.9849 38.2948C26.981 38.1666 25.9771 37.8335 24.948 37.2185C23.2395 36.1403 21.7032 34.8008 20.3928 33.2466C23.028 29.9154 24.6218 26.8788 25.2241 24.1754C25.5128 22.8941 25.5504 21.741 25.4249 20.6776C25.2682 19.6696 24.9001 18.7081 24.3457 17.8588C23.7127 16.9379 22.8678 16.1899 21.8854 15.6806C20.9029 15.1712 19.8129 14.916 18.7112 14.9376C16.3896 14.9376 14.319 16.0395 13.0641 17.846C12.4992 18.6931 12.1341 19.6623 11.9975 20.6776C11.8343 21.7538 11.872 22.9454 12.1982 24.1754C12.8006 26.8788 14.432 29.9538 17.0296 33.2723C15.7414 34.8561 14.2015 36.2074 12.4743 37.2698C11.4328 37.8848 10.4414 38.2051 9.43746 38.3332C7.87622 38.5374 6.29914 38.1042 5.04902 37.1277C3.7989 36.1512 2.97679 34.7104 2.76138 33.1185C2.63589 32.0935 2.72374 31.0685 3.12531 29.9154C3.2508 29.5054 3.43903 29.0954 3.63982 28.6085C3.91589 27.9423 4.24217 27.2504 4.55589 26.5585L4.60609 26.4688C7.31668 20.3573 10.2782 14.1176 13.3528 8.00602L13.4782 7.74977C13.792 7.13477 14.1057 6.48133 14.432 5.86633C14.7582 5.21289 15.1096 4.58508 15.5614 4.07258C15.9524 3.59598 16.441 3.2127 16.9928 2.94971C17.5446 2.68673 18.1462 2.55044 18.7551 2.55044C19.3641 2.55044 19.9656 2.68673 20.5174 2.94971C21.0692 3.2127 21.5578 3.59598 21.9488 4.07258C22.3881 4.58508 22.752 5.21289 23.0782 5.86633C23.392 6.48133 23.7057 7.14758 24.032 7.74977L24.1575 8.00602C27.2194 14.1176 30.181 20.3573 32.9418 26.4688L32.9794 26.5073C33.3057 27.1735 33.5818 27.9166 33.8955 28.5573C34.0963 29.057 34.2971 29.4541 34.4226 29.877C34.661 31.0301 34.7865 32.0551 34.661 33.0801ZM52.1292 30.902C51.1836 30.9161 50.247 30.7127 49.3889 30.3068C48.5308 29.9009 47.7732 29.3029 47.1724 28.5573C45.8222 26.9685 45.1056 24.9199 45.1645 22.8173C45.1439 20.6689 45.8836 18.5851 47.2477 16.9491C47.8786 16.194 48.6641 15.5893 49.5487 15.1775C50.4333 14.7658 51.3955 14.557 52.3677 14.566C53.2824 14.5405 54.1885 14.7528 55.0007 15.1832C55.8129 15.6135 56.5046 16.2477 57.0108 17.026L57.1363 15.0145H60.8006V30.492H57.1237L56.9982 28.237C56.4764 29.0681 55.7552 29.7492 54.903 30.2156C54.0508 30.682 53.096 30.9183 52.1292 30.902ZM53.0829 27.212C53.8108 27.212 54.4508 27.007 55.0531 26.6354C55.6053 26.2254 56.0571 25.6873 56.4084 25.0338C56.7222 24.3804 56.8853 23.5988 56.8853 22.7276C56.9342 21.9709 56.79 21.2142 56.4666 20.5314C56.1433 19.8487 55.6519 19.2633 55.0406 18.8326C54.4532 18.4589 53.775 18.2609 53.0829 18.2609C52.3909 18.2609 51.7127 18.4589 51.1253 18.8326C50.5731 19.2426 50.1214 19.7807 49.77 20.4341C49.4382 21.1548 49.2749 21.9443 49.2931 22.7404C49.2442 23.4971 49.3885 24.2538 49.7118 24.9366C50.0352 25.6193 50.5265 26.2046 51.1379 26.6354C51.7277 27.007 52.3677 27.212 53.0829 27.212ZM67.0751 10.8376C67.0751 11.286 66.9998 11.696 66.799 12.0291C66.5982 12.3495 66.3222 12.6441 65.9582 12.8491C65.5943 13.0541 65.2053 13.131 64.8037 13.131C64.4022 13.131 64.0006 13.0541 63.6367 12.8491C63.2925 12.6535 63.0031 12.3712 62.7959 12.0291C62.6015 11.6642 62.5062 11.2528 62.5198 10.8376C62.5198 10.3763 62.6077 9.96633 62.7959 9.64602C62.9967 9.26164 63.2853 9.03102 63.6367 8.82602C64.0006 8.62102 64.3896 8.53133 64.8037 8.53133C65.2032 8.52193 65.5982 8.61852 65.9501 8.81166C66.302 9.0048 66.5989 9.28787 66.8116 9.63321C66.9942 10.0068 67.0847 10.4202 67.0751 10.8376ZM62.8084 30.4407V14.9888H66.799V30.4663H62.7959L62.8084 30.4407ZM77.4657 19.0376V19.0888C77.2775 18.9991 77.0265 18.9607 76.8382 18.9223C76.5873 18.871 76.3865 18.871 76.148 18.871C75.0312 18.871 74.1904 19.2041 73.6382 19.896C73.0359 20.6007 72.7598 21.5873 72.7598 22.8557V30.4535H68.7567V14.976H72.4335L72.559 17.3207C72.9606 16.5007 73.4375 15.8857 74.1151 15.4245C74.7892 14.9763 75.5827 14.7525 76.3865 14.7838C76.6751 14.7838 76.9512 14.8095 77.1896 14.8607C77.3151 14.8991 77.3904 14.8991 77.4657 14.9376V19.0376ZM79.072 30.4407V8.63383H83.0626V16.962C83.6273 16.2188 84.2673 15.6423 85.0704 15.1938C86.3419 14.5573 87.7863 14.3768 89.1706 14.6813C90.5548 14.9858 91.7983 15.7577 92.7002 16.8723C94.0534 18.4644 94.7702 20.5181 94.7081 22.6251C94.7287 24.7735 93.989 26.8572 92.6249 28.4932C91.9939 29.2484 91.2085 29.8531 90.3239 30.2648C89.4393 30.6766 88.4771 30.8853 87.5049 30.8763C86.5902 30.9019 85.6841 30.6895 84.8719 30.2592C84.0596 29.8289 83.3679 29.1947 82.8618 28.4163L82.7363 30.4279L79.072 30.4663V30.4407ZM86.7896 27.212C87.5049 27.212 88.1449 27.007 88.7473 26.6354C89.2994 26.2254 89.7512 25.6873 90.1026 25.0338C90.4288 24.3804 90.5794 23.5988 90.5794 22.7276C90.5794 21.8691 90.4288 21.0876 90.1026 20.4341C89.773 19.8041 89.31 19.2569 88.7473 18.8326C88.1599 18.4589 87.4817 18.2609 86.7896 18.2609C86.0976 18.2609 85.4193 18.4589 84.832 18.8326C84.2673 19.2426 83.828 19.7807 83.4641 20.4341C83.1323 21.1548 82.969 21.9443 82.9873 22.7404C82.9383 23.4971 83.0826 24.2538 83.406 24.9366C83.7293 25.6193 84.2207 26.2046 84.832 26.6354C85.4218 27.007 86.0618 27.212 86.7896 27.212ZM96.2139 30.4535V14.976H99.8908L100.016 16.9876C100.478 16.2165 101.134 15.5855 101.915 15.1597C102.696 14.734 103.574 14.529 104.459 14.566C105.47 14.5482 106.464 14.8352 107.317 15.3913C108.17 15.9473 108.843 16.7477 109.252 17.6923C109.692 18.666 109.93 19.8704 109.93 21.2157V30.492H105.927V21.7538C105.927 20.6776 105.688 19.832 105.212 19.2041C104.735 18.5891 104.082 18.256 103.254 18.256C102.652 18.256 102.125 18.3841 101.66 18.666C101.221 18.9607 100.857 19.3323 100.581 19.8576C100.302 20.3886 100.163 20.9848 100.179 21.5873V30.4535H96.2139ZM111.925 30.4535V8.62102H115.928V16.9491C116.471 16.2019 117.176 15.5939 117.989 15.1736C118.801 14.7532 119.698 14.5321 120.609 14.5276C121.555 14.5135 122.491 14.7169 123.35 15.1228C124.208 15.5287 124.965 16.1266 125.566 16.8723C126.91 18.4642 127.621 20.5117 127.561 22.6123C127.583 24.7609 126.843 26.845 125.478 28.4804C124.847 29.2355 124.062 29.8403 123.177 30.252C122.293 30.6638 121.33 30.8725 120.358 30.8635C119.444 30.8891 118.537 30.6767 117.725 30.2464C116.913 29.816 116.221 29.1819 115.715 28.4035L115.602 30.4151L111.925 30.4535ZM119.681 27.212C120.408 27.212 121.048 27.007 121.638 26.6354C122.203 26.2254 122.642 25.6873 123.006 25.0338C123.32 24.3804 123.483 23.5988 123.483 22.7276C123.532 21.9709 123.388 21.2142 123.064 20.5314C122.741 19.8487 122.25 19.2633 121.638 18.8326C121.051 18.4589 120.373 18.2609 119.681 18.2609C118.989 18.2609 118.31 18.4589 117.723 18.8326C117.171 19.2426 116.719 19.7807 116.368 20.4341C116.017 21.1483 115.853 21.9426 115.891 22.7404C115.842 23.4971 115.986 24.2538 116.309 24.9366C116.633 25.6193 117.124 26.2046 117.735 26.6354C118.325 27.007 118.928 27.212 119.681 27.212Z" fill="#AFAFAF"/>
</g>
<defs>
<clipPath id="clip0_160_3705">
<rect width="128" height="41" fill="white"/>
</clipPath>
</defs>
</svg>
