<svg width="144" height="41" viewBox="0 0 144 41" fill="none" xmlns="http://www.w3.org/2000/svg">
<g clip-path="url(#clip0_160_3816)">
<path d="M15.5964 6.78944V18.3544H5.02218V6.78944H0.00195312V34.3962H5.02218V23.2067H15.5964V34.3962H20.6166V6.78944H15.5964Z" fill="#8A8A8A"/>
<path d="M36.6816 25.4696C36.6816 26.576 36.244 27.6371 35.4652 28.4194C34.6863 29.2017 33.6299 29.6413 32.5284 29.6413C31.4269 29.6413 30.3706 29.2017 29.5917 28.4194C28.8128 27.6371 28.3752 26.576 28.3752 25.4696V13.6452H23.6133V25.4696C23.6133 27.8423 24.5516 30.1178 26.2219 31.7955C27.8922 33.4732 30.1577 34.4157 32.5198 34.4157C34.882 34.4157 37.1474 33.4732 38.8177 31.7955C40.488 30.1178 41.4263 27.8423 41.4263 25.4696V13.6452H36.6816V25.4696Z" fill="#8A8A8A"/>
<path d="M71.9638 14.8632C71.9638 12.4395 73.5601 11.6711 75.309 11.6711C76.7184 11.6711 78.5804 12.7483 79.7979 14.0553L82.9168 10.3641C81.3598 8.24929 78.2016 6.78668 75.6164 6.78668C70.4511 6.78668 66.7148 9.82555 66.7148 14.8632C66.7148 24.2095 78.0884 21.2448 78.0884 26.4751C78.0884 28.0884 76.529 29.514 74.7432 29.514C71.9269 29.514 71.0143 28.1304 69.7206 26.6678L66.2598 30.2823C68.4735 33.0124 71.2037 34.3984 74.4751 34.3984C79.3822 34.3984 83.33 31.3224 83.33 26.5146C83.33 16.138 71.9564 19.3622 71.9564 14.8632" fill="#8A8A8A"/>
<path d="M142.326 29.9827C139.513 29.9827 138.713 28.7598 138.713 26.8871V18.5981H143.086V14.3981H138.713V8.85645L133.885 11.0331V27.9173C133.885 32.236 136.851 34.4126 140.919 34.4126C141.558 34.4243 142.195 34.3729 142.823 34.2594L144.001 29.9037C143.47 29.9407 142.86 29.9778 142.326 29.9778" fill="#8A8A8A"/>
<path d="M54.8085 13.7832C52.4496 13.7832 50.8041 14.47 49.2127 16.0389V6.9519H44.4434V23.7941C44.4434 30.0992 48.9815 34.4178 54.0804 34.4178C59.7377 34.4178 64.7136 30.0226 64.7136 24.103C64.7136 18.2575 60.1337 13.7856 54.8085 13.7856V13.7832ZM54.779 29.5976C53.7087 29.5976 52.6625 29.2789 51.7726 28.6816C50.8827 28.0844 50.1891 27.2355 49.7796 26.2423C49.37 25.2491 49.2628 24.1562 49.4716 23.1019C49.6804 22.0475 50.1958 21.079 50.9526 20.3189C51.7094 19.5587 52.6736 19.0411 53.7233 18.8313C54.773 18.6216 55.861 18.7292 56.8498 19.1406C57.8386 19.552 58.6837 20.2487 59.2783 21.1425C59.8729 22.0364 60.1903 23.0873 60.1903 24.1623C60.1903 25.6038 59.6202 26.9863 58.6053 28.0057C57.5905 29.025 56.2141 29.5976 54.779 29.5976Z" fill="#8A8A8A"/>
<path d="M106.596 23.8506C106.596 17.9211 101.63 13.5357 95.9632 13.5357C90.8643 13.5357 86.3262 17.8544 86.3262 24.1594V41.0115H91.0955V31.9122C92.6845 33.4786 94.3324 34.1679 96.6888 34.1679C102.014 34.1679 106.594 29.6985 106.594 23.8506H106.596ZM102.08 23.7913C102.08 24.8663 101.763 25.9171 101.168 26.811C100.574 27.7048 99.7288 28.4015 98.74 28.8129C97.7512 29.2243 96.6632 29.3319 95.6135 29.1222C94.5638 28.9125 93.5996 28.3948 92.8428 27.6346C92.086 26.8745 91.5706 25.906 91.3618 24.8516C91.153 23.7973 91.2602 22.7044 91.6698 21.7112C92.0793 20.718 92.7729 19.8692 93.6628 19.2719C94.5527 18.6747 95.5989 18.3559 96.6692 18.3559C98.1043 18.3559 99.4807 18.9285 100.496 19.9479C101.51 20.9672 102.08 22.3497 102.08 23.7913Z" fill="#8A8A8A"/>
<path d="M122.001 13.3049V8.49217C122.634 8.19499 123.17 7.72326 123.547 7.13191C123.924 6.54056 124.125 5.85391 124.129 5.15189V5.04071C124.129 4.05784 123.74 3.11522 123.048 2.42022C122.356 1.72522 121.418 1.33478 120.439 1.33478H120.328C119.35 1.33478 118.411 1.72522 117.72 2.42022C117.028 3.11522 116.639 4.05784 116.639 5.04071V5.15189C116.642 5.85391 116.844 6.54056 117.221 7.13191C117.597 7.72326 118.133 8.19499 118.767 8.49217V13.3049C116.947 13.5846 115.233 14.3423 113.798 15.5013L100.658 5.22107C100.751 4.88206 100.801 4.53253 100.806 4.18093C100.807 3.35502 100.565 2.54723 100.109 1.85973C99.6536 1.17223 99.0052 0.635909 98.2461 0.318606C97.4869 0.0013018 96.6511 -0.0827302 95.8444 0.0771387C95.0377 0.237008 94.2963 0.633595 93.7141 1.21674C93.1318 1.79988 92.7348 2.54338 92.5732 3.3532C92.4117 4.16301 92.4928 5.00276 92.8065 5.76622C93.1201 6.52969 93.6522 7.18257 94.3353 7.64228C95.0184 8.102 95.8219 8.3479 96.6441 8.34887C97.3632 8.34565 98.0688 8.15313 98.6906 7.79051L111.631 17.9028C110.468 19.6667 109.862 21.7417 109.89 23.857C109.919 25.9724 110.581 28.0301 111.791 29.7618L107.855 33.7148C107.537 33.6127 107.206 33.5586 106.872 33.5542C106.196 33.5547 105.537 33.7561 104.976 34.1331C104.415 34.5101 103.977 35.0457 103.719 35.6722C103.461 36.2987 103.394 36.988 103.526 37.653C103.657 38.318 103.983 38.9288 104.46 39.4082C104.937 39.8877 105.545 40.2142 106.207 40.3466C106.869 40.479 107.556 40.4113 108.179 40.1521C108.803 39.8928 109.336 39.4537 109.712 38.8901C110.087 38.3266 110.288 37.6639 110.288 36.9859C110.284 36.6503 110.23 36.3173 110.128 35.9976L114.022 32.0866C115.291 33.068 116.768 33.7445 118.338 34.0642C119.908 34.384 121.53 34.3386 123.08 33.9315C124.63 33.5243 126.067 32.7663 127.28 31.7154C128.493 30.6645 129.451 29.3486 130.08 27.8686C130.708 26.3885 130.992 24.7835 130.908 23.1766C130.824 21.5696 130.374 20.0033 129.595 18.5976C128.815 17.1919 127.725 15.9841 126.409 15.0667C125.093 14.1493 123.585 13.5467 122.001 13.3049ZM120.388 29.1318C119.322 29.1308 118.282 28.8127 117.396 28.2177C116.511 27.6227 115.822 26.7774 115.415 25.7888C115.008 24.8002 114.901 23.7126 115.11 22.6634C115.318 21.6142 115.831 20.6506 116.584 19.8943C117.338 19.138 118.297 18.623 119.342 18.4143C120.386 18.2057 121.469 18.3128 122.453 18.7221C123.437 19.1313 124.278 19.8245 124.87 20.7138C125.462 21.6032 125.779 22.6488 125.779 23.7186C125.779 25.1536 125.212 26.5298 124.201 27.5445C123.191 28.5592 121.821 29.1293 120.392 29.1293" fill="#D8D8D8"/>
</g>
<defs>
<clipPath id="clip0_160_3816">
<rect width="144" height="41" fill="white"/>
</clipPath>
</defs>
</svg>
