<svg width="166" height="35" viewBox="0 0 166 35" fill="none" xmlns="http://www.w3.org/2000/svg">
<g clip-path="url(#clip0_160_3804)">
<path d="M58.5969 20.1595L57.6075 22.9269H57.525C57.3601 22.3029 57.0578 21.3533 56.5631 20.2137L51.2588 7.05482H46.0645V28.0277H49.4999V15.0858C49.4999 14.2719 49.4999 13.3494 49.4724 12.2099C49.4449 11.6401 49.3899 11.206 49.3625 10.8804H49.4449C49.6098 11.6943 49.8022 12.2912 49.9396 12.6711L56.3158 27.9734H58.7343L65.0555 12.5354C65.1929 12.1827 65.3303 11.4773 65.4678 10.8804H65.5502C65.4678 12.4269 65.4128 13.8106 65.3853 14.6517V27.9463H69.0406V7.00055H64.0386L58.5969 20.1595ZM72.5035 12.9153H76.0764V27.9463H72.5035V12.9153ZM74.3174 6.56644C73.7128 6.56644 73.2181 6.7835 72.8058 7.16334C72.3936 7.54319 72.1737 8.03156 72.1737 8.62846C72.1737 9.19823 72.3936 9.6866 72.8058 10.0664C73.2181 10.4463 73.7128 10.6362 74.3174 10.6362C74.9221 10.6362 75.4442 10.4192 75.829 10.0664C76.2413 9.6866 76.4611 9.19823 76.4611 8.62846C76.4611 8.05869 76.2413 7.57032 75.829 7.16334C75.4717 6.7835 74.9495 6.56644 74.3174 6.56644ZM88.7462 12.7796C88.0866 12.644 87.3995 12.5626 86.7399 12.5626C85.1184 12.5626 83.6343 12.9153 82.3976 13.6207C81.1608 14.3261 80.1714 15.3029 79.5393 16.5238C78.8797 17.7719 78.5499 19.2099 78.5499 20.8649C78.5499 22.3029 78.8797 23.5781 79.5118 24.7447C80.1439 25.8843 81.0234 26.8068 82.2052 27.4308C83.332 28.0548 84.6512 28.3804 86.1353 28.3804C87.8393 28.3804 89.2959 28.0277 90.4502 27.3765L90.4777 27.3494V24.0936L90.3403 24.2021C89.8181 24.5819 89.2135 24.9075 88.6088 25.0975C87.9767 25.3145 87.3996 25.423 86.9049 25.423C85.4757 25.423 84.3489 25.0161 83.5519 24.1207C82.7274 23.2525 82.3151 22.0587 82.3151 20.5664C82.3151 19.0199 82.7274 17.799 83.5793 16.9037C84.4313 16.0083 85.5582 15.5471 86.9323 15.5471C88.0866 15.5471 89.2684 15.9269 90.3403 16.6866L90.4777 16.7951V13.3494L90.4502 13.3223C89.983 13.1323 89.4608 12.9153 88.7462 12.7796ZM100.537 12.6711C99.6572 12.6711 98.8327 12.9424 98.1181 13.5122C97.5135 14.0006 97.1012 14.706 96.7439 15.5471H96.7164V12.9153H93.1436V27.9463H96.7164V20.268C96.7164 18.9657 96.9913 17.8804 97.5959 17.0936C98.2005 16.2796 98.9701 15.8726 99.9045 15.8726C100.234 15.8726 100.564 15.954 100.976 16.0083C101.361 16.1168 101.636 16.2254 101.828 16.361L101.966 16.4695V12.9424L101.883 12.9153C101.636 12.7525 101.141 12.6711 100.537 12.6711ZM110.266 12.5897C107.765 12.5897 105.758 13.3223 104.357 14.7602C102.928 16.1982 102.241 18.1788 102.241 20.675C102.241 23.0083 102.955 24.9075 104.329 26.2912C105.704 27.6478 107.572 28.3533 109.908 28.3533C112.355 28.3533 114.306 27.6207 115.707 26.1556C117.137 24.6905 117.824 22.737 117.824 20.3223C117.824 17.9347 117.164 16.0354 115.817 14.6517C114.526 13.268 112.629 12.5897 110.266 12.5897ZM113.124 24.1478C112.464 24.9889 111.42 25.3959 110.128 25.3959C108.837 25.3959 107.792 24.9889 107.05 24.0936C106.308 23.2525 105.951 22.0316 105.951 20.485C105.951 18.8843 106.336 17.6633 107.05 16.7951C107.792 15.9269 108.809 15.4928 110.101 15.4928C111.365 15.4928 112.355 15.8998 113.069 16.7409C113.784 17.5819 114.168 18.8029 114.168 20.4037C114.113 22.0316 113.811 23.3068 113.124 24.1478ZM125.794 19.1556C124.667 18.6943 123.953 18.3416 123.623 18.0432C123.348 17.7719 123.21 17.392 123.21 16.9037C123.21 16.4967 123.375 16.0897 123.788 15.8184C124.2 15.5471 124.667 15.4114 125.354 15.4114C125.959 15.4114 126.591 15.5199 127.196 15.6827C127.8 15.8455 128.35 16.0897 128.79 16.4153L128.927 16.5238V13.2137L128.845 13.1866C128.432 13.0238 127.883 12.861 127.223 12.7254C126.563 12.6168 125.959 12.5626 125.464 12.5626C123.76 12.5626 122.358 12.9695 121.259 13.8649C120.16 14.706 119.638 15.8455 119.638 17.175C119.638 17.8804 119.748 18.5044 119.995 19.0199C120.242 19.5354 120.6 20.0238 121.094 20.4308C121.589 20.8106 122.304 21.2447 123.293 21.6517C124.117 22.0044 124.75 22.2757 125.134 22.4928C125.519 22.7099 125.766 22.954 125.959 23.144C126.096 23.361 126.179 23.6323 126.179 23.985C126.179 24.9889 125.409 25.4773 123.843 25.4773C123.238 25.4773 122.606 25.3688 121.864 25.1246C121.122 24.8804 120.435 24.5277 119.857 24.1207L119.72 24.0122V27.4579L119.803 27.485C120.325 27.7292 120.957 27.892 121.726 28.0819C122.496 28.2176 123.183 28.3261 123.788 28.3261C125.629 28.3261 127.141 27.9192 128.212 27.0238C129.312 26.1556 129.889 25.0432 129.889 23.6052C129.889 22.6013 129.614 21.706 129.009 21.0277C128.212 20.3765 127.223 19.6982 125.794 19.1556ZM139.316 12.5897C136.815 12.5897 134.808 13.3223 133.407 14.7602C132.005 16.1982 131.291 18.1788 131.291 20.675C131.291 23.0083 132.005 24.9075 133.379 26.2912C134.754 27.6478 136.622 28.3533 138.958 28.3533C141.405 28.3533 143.356 27.6207 144.757 26.1556C146.187 24.6905 146.874 22.737 146.874 20.3223C146.874 17.9347 146.214 16.0354 144.867 14.6517C143.576 13.268 141.679 12.5897 139.316 12.5897ZM142.147 24.1478C141.487 24.9889 140.443 25.3959 139.151 25.3959C137.832 25.3959 136.815 24.9889 136.073 24.0936C135.331 23.2525 134.973 22.0316 134.973 20.485C134.973 18.8843 135.358 17.6633 136.073 16.7951C136.815 15.9269 137.832 15.4928 139.123 15.4928C140.36 15.4928 141.377 15.8998 142.092 16.7409C142.806 17.5819 143.191 18.8029 143.191 20.4037C143.191 22.0316 142.834 23.3068 142.147 24.1478ZM165.975 15.8184V12.9153H162.374V8.46567L162.264 8.4928L158.856 9.49668L158.774 9.52381V12.9153H153.387V11.0161C153.387 10.1478 153.607 9.46954 153.992 9.03544C154.377 8.60133 154.954 8.38427 155.668 8.38427C156.163 8.38427 156.685 8.4928 157.262 8.73699L157.4 8.81838V5.75249L157.317 5.72536C156.823 5.56257 156.163 5.45404 155.311 5.45404C154.239 5.45404 153.305 5.69823 152.453 6.1052C151.601 6.56644 150.969 7.19047 150.502 8.03156C150.034 8.84551 149.787 9.76799 149.787 10.8261V12.9153H147.286V15.7912H149.787V27.9463H153.387V15.8184H158.774V23.5509C158.774 26.7254 160.286 28.3261 163.309 28.3261C163.804 28.3261 164.326 28.2447 164.82 28.1633C165.343 28.0548 165.727 27.9192 165.947 27.8106L165.975 27.7835V24.8804L165.837 24.9889C165.617 25.1246 165.425 25.2331 165.095 25.3145C164.82 25.3959 164.573 25.423 164.381 25.423C163.666 25.423 163.171 25.2602 162.814 24.8533C162.484 24.4734 162.319 23.8494 162.319 22.9269V15.8184H165.975Z" fill="#BEBEBE"/>
<path d="M0 0H16.8474V16.6318H0V0Z" fill="#D6D6D6"/>
<path d="M18.6074 0H35.4548V16.6318H18.6074V0Z" fill="#B3B3B3"/>
<path d="M0 18.3687H16.8474V35.0005H0V18.3687Z" fill="#767676"/>
<path d="M18.6074 18.3687H35.4548V35.0005H18.6074V18.3687Z" fill="#C4C4C4"/>
</g>
<defs>
<clipPath id="clip0_160_3804">
<rect width="166" height="35" fill="white"/>
</clipPath>
</defs>
</svg>
