<svg width="189" height="44" viewBox="0 0 189 44" fill="none" xmlns="http://www.w3.org/2000/svg">
<g clip-path="url(#clip0_160_3792)">
<path d="M67.26 15.6501V18.1436H67.3367C68.2395 16.8086 69.7382 15.2363 73.0602 15.2363C75.6447 15.2363 77.6272 16.5438 78.4769 18.5188H78.5536C79.2794 17.5203 80.1113 16.7645 81.0436 16.2293C82.147 15.5949 83.3743 15.2308 84.9203 15.2308C88.4193 15.2308 91.5171 17.4927 91.5171 23.197V34.0154H86.183V23.9528C86.183 21.062 85.1327 19.3904 82.9495 19.3904C81.3505 19.3904 80.1881 20.3945 79.7455 21.6302C79.5921 22.055 79.5213 22.6343 79.5213 23.1198V34.0209H74.1872V23.5446C74.1872 21.0896 73.1782 19.3849 71.0245 19.3849C69.3016 19.3849 68.2218 20.6538 67.7793 21.7406C67.5904 22.204 67.5314 22.7391 67.5314 23.2411V34.0154H62.1915V15.6501H67.26ZM119.049 15.6501V19.1146H119.196C120.176 16.4665 122.501 15.2363 124.542 15.2363C125.056 15.2363 125.339 15.2749 125.752 15.3522V20.1628C125.262 20.0966 124.808 20.0304 124.171 20.0304C121.858 20.0304 120.247 21.2882 119.84 23.2577C119.751 23.6659 119.722 24.1073 119.722 24.6148V34.0209H114.246V15.6501H119.049ZM133.187 9.56508V15.3466H137.813V20.0249H133.187V26.9263C133.187 29.1606 133.794 30.2419 135.6 30.2419C136.449 30.2419 137.075 30.1426 137.618 30.0157L137.689 33.894C136.963 34.1478 135.417 34.4236 133.847 34.4236C132.001 34.4236 130.46 33.8223 129.522 32.8899C128.448 31.8252 127.953 30.0819 127.953 27.5994V9.56508H133.187ZM58.4741 34.0154H53.1637V9.56508H58.4741V34.0154ZM44.3129 27.4559C44.3129 27.7925 44.2834 28.1455 44.1831 28.449C43.7701 29.7233 42.3598 30.7991 40.6015 30.7991C39.1322 30.7991 37.9639 30.0212 37.9639 28.3717C37.9639 25.8506 40.9378 25.1499 44.3188 25.1665V27.4559H44.3129ZM49.6175 23.0591C49.6175 18.8939 47.7175 15.2363 41.2918 15.2363C37.9934 15.2363 35.3736 16.1024 33.9457 16.8748L34.9901 20.2179C36.2941 19.4456 38.377 18.8112 40.3477 18.8112C43.6107 18.8057 44.1418 20.5379 44.1418 21.6468V21.9116C37.0317 21.9006 32.5414 24.201 32.5414 28.8903C32.5414 31.7535 34.8249 34.4346 38.8018 34.4346C41.2505 34.4346 43.2921 33.5244 44.5194 32.0624H44.6374C44.6374 32.0624 45.4517 35.2346 49.9243 34.0209C49.6883 32.6969 49.6116 31.2901 49.6116 29.5964V23.0591H49.6175ZM5.86512 9.56508C6.41386 12.1524 7.9716 19.6663 7.9716 19.6663C8.62656 22.7557 9.22841 25.994 9.68275 28.5538H9.76536C10.2079 25.834 10.9042 23.2577 11.6476 20.069L14.2734 9.56508H20.0854L22.54 20.3393C23.1831 23.3349 23.6965 25.6464 24.1036 28.4324H24.1803C24.6229 25.6189 25.2011 23.2135 25.8325 20.1352L28.1927 9.56508H33.7687L26.8592 34.0154C22.4574 34.9146 20.7698 33.2596 20.168 30.6336C19.5661 28.0021 18.386 22.9984 18.386 22.9984C17.7783 20.2566 17.3062 18.3257 16.9758 15.5121H16.8932C16.4211 18.2981 15.9255 20.251 15.1938 22.9929L12.2967 34.0209C7.80049 34.8594 6.24275 33.6182 5.38127 30.2474C4.63781 27.3622 0 9.5706 0 9.5706H5.86512V9.56508ZM105.395 27.4559C105.395 27.7925 105.366 28.1455 105.265 28.449C104.852 29.7233 103.442 30.7991 101.684 30.7991C100.214 30.7991 99.0461 30.0212 99.0461 28.3717C99.0461 25.8506 102.02 25.1499 105.401 25.1665V27.4559H105.395ZM110.7 23.0591C110.7 18.8939 108.8 15.2363 102.374 15.2363C99.0756 15.2363 96.4558 16.1024 95.0279 16.8748L96.0722 20.2179C97.3763 19.4456 99.4591 18.8112 101.43 18.8112C104.687 18.8057 105.224 20.5379 105.224 21.6468V21.9116C98.1197 21.9006 93.6294 24.201 93.6294 28.8903C93.6294 31.7535 95.9188 34.4346 99.8899 34.4346C102.333 34.4346 104.38 33.5244 105.602 32.0624H105.725C105.725 32.0624 106.54 35.2346 111.012 34.0209C110.776 32.6969 110.7 31.2901 110.7 29.5964V23.0591Z" fill="#646464"/>
<path d="M159.339 25.5947C159.863 26.4876 159.828 27.4842 159.269 27.9393L149.611 34.5698C148.605 35.1401 147.1 34.4488 146.247 33.0029C145.388 31.5512 145.541 29.9324 146.547 29.3621L157.24 24.4886C157.91 24.2351 158.816 24.7018 159.339 25.5947ZM172.049 25.5947C172.579 24.7018 173.479 24.2409 174.149 24.4828L184.848 29.3564C185.853 29.9267 186 31.5454 185.148 32.9971C184.289 34.4431 182.777 35.1286 181.777 34.564L172.12 27.9335C171.567 27.4842 171.526 26.4818 172.049 25.5947ZM165.691 29.1893C166.744 29.1893 167.609 29.7193 167.726 30.4163L168.767 41.9262C168.767 43.0668 167.409 44 165.697 44C163.992 44 162.627 43.0668 162.627 41.9262L163.662 30.4163C163.78 29.7193 164.644 29.1893 165.691 29.1893ZM172.12 16.0665L181.777 9.43022C182.777 8.85991 184.289 9.54543 185.148 10.9971C186 12.4488 185.853 14.0676 184.848 14.6379L174.149 19.5172C173.479 19.7591 172.573 19.2982 172.049 18.4053C171.526 17.5124 171.567 16.5158 172.12 16.0665ZM157.24 19.5172L146.547 14.6379C145.547 14.0676 145.394 12.4488 146.247 10.9971C147.1 9.54543 148.611 8.85991 149.611 9.43022L159.269 16.0665C159.828 16.5101 159.863 17.5124 159.339 18.4053C158.816 19.2982 157.91 19.7591 157.24 19.5172ZM163.662 13.5837L162.627 2.07384C162.627 0.933229 163.986 0 165.697 0C167.409 0 168.767 0.933229 168.767 2.07384L167.726 13.5837C167.609 14.2749 166.744 14.8107 165.691 14.8107C164.644 14.8107 163.78 14.2749 163.662 13.5837ZM187.759 34.5237V34.2357H188.024C188.112 34.2357 188.171 34.2933 188.171 34.3797C188.171 34.4603 188.112 34.5237 188.024 34.5237H187.759ZM187.541 35.0479C187.541 35.0767 187.565 35.1055 187.6 35.1055H187.712C187.741 35.1055 187.771 35.0767 187.771 35.0479V34.7196H187.953L188.1 35.0652C188.112 35.0882 188.13 35.1055 188.153 35.1055H188.288C188.33 35.1055 188.359 35.0652 188.341 35.0249C188.288 34.9212 188.235 34.8117 188.183 34.7023C188.271 34.6735 188.406 34.5871 188.406 34.3797C188.406 34.1608 188.224 34.034 188.041 34.034H187.6C187.571 34.034 187.541 34.0628 187.541 34.0916V35.0479ZM187.065 34.5698C187.065 34.1032 187.453 33.723 187.93 33.723C188.406 33.723 188.794 34.0974 188.794 34.5698C188.794 35.0364 188.412 35.4166 187.93 35.4166C187.447 35.4166 187.065 35.0364 187.065 34.5698ZM186.859 34.5698C186.859 35.1459 187.336 35.6182 187.93 35.6182C188.518 35.6182 189 35.1459 189 34.5698C189 33.9937 188.518 33.5213 187.93 33.5213C187.336 33.5213 186.859 33.9937 186.859 34.5698Z" fill="#B5B5B5"/>
</g>
<defs>
<clipPath id="clip0_160_3792">
<rect width="189" height="44" fill="white"/>
</clipPath>
</defs>
</svg>
